<svg class="douyin-icon" viewBox="0 0 1024 1024" width="40" height="40">
<path d="M937.1 423.4c-92 0-165.9-71.5-172.6-161.5h-86.2v455c0 47.8-38.8 86.5-86.5 86.5-47.8 0-86.5-38.8-86.5-86.5s38.8-86.5 86.5-86.5c9.4 0 18.8 1.6 27.5 4.7V546c-9.1-1.2-18.1-1.9-27.5-1.9-105.6 0-191.1 85.5-191.1 191.1S486.2 926.2 591.8 926.2c105.6 0 191.1-85.5 191.1-191.1V453.7c31.5 22.1 69.6 35.1 111 35.1V423.4h43.2-0.1z m0 0" fill="#ff0050"></path>
<path d="M778.7 423.4v65.4c-41.3 0-79.5-13-111-35.1v281.6c0 105.6-85.5 191.1-191.1 191.1-105.6 0-191.1-85.5-191.1-191.1S371.1 544 476.7 544c9.4 0 18.3 0.6 27.5 1.9v89.1c-8.7-3.1-18.1-4.7-27.5-4.7-47.8 0-86.5 38.8-86.5 86.5s38.8 86.5 86.5 86.5c47.8 0 86.5-38.8 86.5-86.5V261.9h86.2c6.8 90.1 80.6 161.5 172.6 161.5h-43.2z" fill="#000000"></path>
</svg>