<svg t="1747032341381" class="icon" viewBox="0 0 1024 1024" version="1.1" xmlns="http://www.w3.org/2000/svg" p-id="12951" width="48" height="48">
<path d="M239.056896 261.30432 120.561664 261.30432c-27.394048 0-49.60256 22.208512-49.60256 49.60256L70.959104 738.03776c0 27.396096 22.208512 49.60256 49.60256 49.60256l118.495232 0L239.056896 261.30432z" fill="#e6e6e6" p-id="12952"></path>
<path d="M249.296896 261.30432l0 526.336L751.616 787.64032l0-526.336L249.296896 261.30432zM425.263104 643.508224l0.210944-238.073856 150.962176 119.216128L425.263104 643.508224z" fill="#e6e6e6" p-id="12953"></path>
<path d="M761.856 261.30432l118.493184 0c27.396096 0 49.604608 22.208512 49.604608 49.60256L929.953792 738.03776c0 27.396096-22.208512 49.60256-49.604608 49.60256L761.856 787.64032 761.856 261.30432z" fill="#e6e6e6" p-id="12954"></path>
</svg>