<svg t="1748401875747" class="icon" viewBox="0 0 1024 1024" version="1.1" xmlns="http://www.w3.org/2000/svg" p-id="10242" width="24" height="24"><path d="M360.210101 453.559596v164.20202H123.862626v-164.20202h236.347475z m-52.234343-242.553535h120.371717c-22.755556 73.050505-45.511111 146.230303-68.266667 219.280808H123.862626c61.414141-73.050505 122.828283-146.10101 184.113132-219.280808z m287.418181 0h120.50101c61.284848 73.050505 122.69899 146.230303 184.113132 219.280808H663.531313c-22.755556-73.050505-45.511111-146.230303-68.137374-219.280808z m-143.773737 0c-19.264646 73.050505-38.658586 146.230303-57.923232 219.280808h236.347474c-19.264646-73.050505-38.529293-146.230303-57.923232-219.280808h-120.50101z m448.387879 438.690909v164.072727H663.660606V649.69697h236.347475z m-207.644445 88.953535c26.246465 10.989899 51.070707 26.246465 72.145455 46.416162h27.927273c-27.539394-30.125253-63.094949-51.717172-100.072728-65.551515v19.135353z m0 26.117172v20.29899h33.745455c-10.731313-7.886869-21.979798-14.610101-33.745455-20.29899z m133.30101 20.29899h24.048485c-37.753535-52.751515-95.288889-88.048485-154.246464-106.666667h-3.103031v16.290909c50.424242 16.808081 99.167677 46.674747 133.30101 90.375758z m45.640405-13.963637v-28.315151c-23.014141-25.858586-50.165657-47.321212-79.385859-64.387879h-33.616162c43.183838 21.462626 83.393939 52.363636 113.002021 92.70303z m0-63.870707v-28.832323h-35.29697c12.282828 8.791919 24.048485 18.359596 35.29697 28.832323z m-241.260607-57.535353v164.072727H393.69697V649.69697h236.347474z m-207.644444 88.953535c26.246465 10.989899 51.2 26.246465 72.145455 46.416162h27.927272c-27.539394-30.125253-63.094949-51.717172-100.072727-65.551515v19.135353z m0 26.117172v20.29899h33.745455c-10.60202-7.886869-21.979798-14.610101-33.745455-20.29899z m133.430303 20.29899h24.048485c-37.753535-52.751515-95.418182-88.048485-154.246465-106.666667h-3.232323v16.290909c50.424242 16.808081 99.29697 46.674747 133.430303 90.375758z m45.511111-13.963637v-28.315151c-23.014141-25.858586-50.165657-47.321212-79.385858-64.387879h-33.616162c43.313131 21.462626 83.523232 52.363636 113.00202 92.70303z m0-63.870707v-28.832323h-35.29697c12.412121 8.791919 24.177778 18.359596 35.29697 28.832323z m-241.131313-57.535353v164.072727H123.862626V649.69697h236.347475zM152.565657 738.650505c26.246465 10.989899 51.2 26.246465 72.145454 46.416162h27.927273c-27.539394-30.125253-63.094949-51.717172-100.072727-65.551515v19.135353z m0 26.117172v20.29899h33.745454c-10.60202-7.886869-21.979798-14.610101-33.745454-20.29899z m133.430303 20.29899h24.048484c-37.753535-52.751515-95.288889-88.048485-154.246464-106.666667H152.565657v16.290909c50.553535 16.808081 99.29697 46.674747 133.430303 90.375758z m45.511111-13.963637v-28.315151c-23.014141-25.858586-50.165657-47.321212-79.385859-64.387879H218.505051c43.313131 21.462626 83.523232 52.363636 113.00202 92.70303z m0-63.870707v-28.832323h-35.29697c12.412121 8.791919 24.177778 18.359596 35.29697 28.832323z m568.50101-253.672727v164.20202H663.660606v-164.20202h236.347475z m-207.644445 89.082828c26.246465 10.860606 51.070707 26.246465 72.145455 46.286869h27.927273c-27.539394-30.125253-63.094949-51.846465-100.072728-65.551515v19.264646z m0 26.117172v20.29899h33.745455c-10.731313-7.886869-21.979798-14.610101-33.745455-20.29899z m133.30101 20.29899h24.048485c-37.753535-52.751515-95.288889-88.048485-154.246464-106.666667h-3.103031v16.290909c50.424242 16.678788 99.167677 46.545455 133.30101 90.375758z m45.640405-14.092929v-28.185859c-23.014141-25.858586-50.165657-47.321212-79.385859-64.517172h-33.616162c43.183838 21.591919 83.393939 52.363636 113.002021 92.703031z m0-63.870708V482.262626h-35.29697c12.282828 8.791919 24.048485 18.488889 35.29697 28.832323z m-241.260607-57.535353v164.20202H393.69697v-164.20202h236.347474z m-207.644444 89.082828c26.246465 10.860606 51.2 26.246465 72.145455 46.286869h27.927272c-27.539394-30.125253-63.094949-51.846465-100.072727-65.551515v19.264646z m0 26.117172v20.29899h33.745455c-10.60202-7.886869-21.979798-14.610101-33.745455-20.29899z m133.430303 20.29899h24.048485c-37.753535-52.751515-95.418182-88.048485-154.246465-106.666667h-3.232323v16.290909c50.424242 16.678788 99.29697 46.545455 133.430303 90.375758z m45.511111-14.092929v-28.185859c-23.014141-25.858586-50.165657-47.321212-79.385858-64.517172h-33.616162c43.313131 21.591919 83.523232 52.363636 113.00202 92.703031z m0-63.870708V482.262626h-35.29697c12.412121 8.791919 24.177778 18.488889 35.29697 28.832323zM152.565657 542.642424c26.246465 10.860606 51.2 26.246465 72.145454 46.286869h27.927273c-27.539394-30.125253-63.094949-51.846465-100.072727-65.551515v19.264646z m0 26.117172v20.29899h33.745454c-10.60202-7.886869-21.979798-14.610101-33.745454-20.29899z m133.430303 20.29899h24.048484c-37.753535-52.751515-95.288889-88.048485-154.246464-106.666667H152.565657v16.290909c50.553535 16.678788 99.29697 46.545455 133.430303 90.375758z m45.511111-14.092929v-28.185859c-23.014141-25.858586-50.165657-47.321212-79.385859-64.517172H218.505051c43.313131 21.591919 83.523232 52.363636 113.00202 92.703031z m0-63.870708V482.262626h-35.29697c12.412121 8.791919 24.177778 18.488889 35.29697 28.832323z m0 0" fill="#409eff" p-id="10243"></path></svg>